<svg width="148" height="148" viewBox="0 0 148 148" fill="none" xmlns="http://www.w3.org/2000/svg">
<rect width="148" height="148" rx="36" fill="#00AA1B"/>
<path d="M93.8309 35.8867C93.492 35.8867 92.3175 36.0535 91.2191 36.2565C86.367 37.1609 57.7712 42.9899 57.2836 43.1748C56.5278 43.4612 55.7793 44.139 55.424 44.8604L55.1231 45.473C55.1231 45.473 54.9818 88.7392 54.7625 89.225C54.429 89.9663 53.6895 90.6677 53.008 90.8925C52.6853 90.9994 51.4075 91.293 50.1696 91.545C44.433 92.714 42.3015 93.555 40.4981 95.3675C39.474 96.3952 38.7164 97.7999 38.3883 99.2717C38.0748 100.68 38.1817 102.786 38.6276 104.068C39.5592 106.741 41.6255 108.635 44.4076 109.364C47.034 110.051 51.9513 109.286 54.467 107.798C55.5165 107.176 56.8686 105.869 57.5736 104.796C57.8528 104.372 58.2715 103.515 58.5053 102.895C59.3245 100.718 59.3499 61.9577 59.455 61.4702C59.6326 60.6418 60.1855 60.0365 60.9485 59.8299C61.6355 59.645 89.171 54.0715 89.9467 53.961C90.6753 53.8577 91.3641 54.1168 91.6958 54.6225C91.9187 54.9633 92.4751 81.7031 91.7248 82.593C91.1792 83.2419 90.0446 83.492 87.2461 84.0775C82.9867 84.9674 81.5295 85.3879 79.9 86.2035C77.8628 87.2222 76.7318 88.3369 75.8581 90.1892C75.2401 91.4997 75.0099 92.482 75.0117 93.7852C75.0153 96.1179 75.802 97.9413 77.5746 99.7248C78.7926 100.952 79.9073 101.593 81.4443 101.956C83.1716 102.364 86.6878 102.096 89.0948 101.372C92.5005 100.35 94.9039 97.8724 95.8881 94.3707C96.0802 93.6874 96.1781 92.9823 96.1781 92.2736C96.1835 84.585 96.2071 37.9729 96.1056 37.6195C95.783 36.5175 94.9565 35.8849 93.8309 35.8867Z" fill="#B7D5BA"/>
</svg>
