<svg width="84" height="84" viewBox="0 0 84 84" fill="none" xmlns="http://www.w3.org/2000/svg">
<path d="M27.6635 41.5317C27.6635 33.9378 33.8196 27.7883 41.4217 27.7883C49.0238 27.7883 55.1799 33.9378 55.1799 41.5317C55.1799 49.1257 49.0238 55.2751 41.4217 55.2751C33.8196 55.2751 27.6635 49.1257 27.6635 41.5317ZM20.1853 41.5317C20.1853 53.2528 29.688 62.704 41.3804 62.704C53.1141 62.704 62.5754 53.2115 62.5754 41.5317C62.5754 29.8519 53.0728 20.3595 41.3804 20.3595C29.688 20.3595 20.1853 29.8106 20.1853 41.5317ZM58.5265 19.4928C58.5265 22.2167 60.7575 24.4454 63.4844 24.4454C66.2112 24.4454 68.4423 22.2167 68.4423 19.4928C68.4423 16.7689 66.2112 14.5402 63.4844 14.5402C60.7575 14.5402 58.5265 16.7689 58.5265 19.4928ZM24.7301 75.1267C20.7224 74.9616 18.5327 74.26 17.0453 73.7234C13.3682 72.2789 10.6 69.555 9.19528 65.8819C6.75764 59.6086 7.54264 29.6868 7.79054 24.8581C7.99712 20.1118 8.94739 15.7784 12.294 12.4354C16.4256 8.30823 21.7553 6.28593 58.1133 7.93679C62.8646 8.14314 67.2028 9.09239 70.5494 12.4354C74.681 16.5625 76.7468 21.9691 75.0528 58.2054C74.8876 62.2087 74.1852 64.3961 73.6481 65.8819C69.8883 75.4568 61.2946 76.8188 24.7301 75.1267ZM24.3995 0.507932C17.6237 0.796832 11.7982 2.44769 7.04685 7.1939C2.29552 11.9401 0.684208 17.8419 0.353681 24.5279C0.147102 28.6963 -0.968431 60.3102 2.25421 68.5645C4.44395 74.1361 8.69948 78.4697 14.3184 80.6158C16.9627 81.6476 19.9374 82.3492 24.3582 82.5143C61.1294 84.1651 74.8049 83.2571 80.5478 68.5232C81.5807 65.8819 82.2831 62.9103 82.4484 58.4943C84.1423 21.5564 82.1592 13.5497 75.7552 7.15262C70.7147 2.1175 64.7239 -1.34928 24.3995 0.507932Z" fill="#00AA1B"/>
</svg>
