<svg width="180" height="180" viewBox="0 0 180 180" fill="none" xmlns="http://www.w3.org/2000/svg">
<path d="M96.6676 64.5718C85.2319 70.3069 76.1801 74.8328 64.3989 80.7061V103.025C76.1801 108.933 85.2319 113.459 96.6676 119.159V64.5718Z" fill="#00AA1B"/>
<path d="M56.3493 85.8193H48.2649V101.954H56.3493V85.8193Z" fill="#00AA1B"/>
<path d="M139.785 0H40.215C18.1036 0 0 18.1036 0 40.215V139.785C0 161.896 18.1036 180 40.215 180H139.785C161.896 180 180 161.896 180 139.785V40.215C180 18.1036 161.896 0 139.785 0ZM104.752 132.219L54.9674 110.038H40.1804V77.7351H54.9674L104.752 51.5125V132.219ZM120.887 110.038H112.802V77.7351H120.887V110.038V110.038ZM137.021 118.123H128.937V69.6852H137.021V118.123ZM153.19 126.173H145.106V61.6008H153.19V126.173Z" fill="#00AA1B"/>
</svg>
