<svg width="180" height="180" viewBox="0 0 180 180" fill="none" xmlns="http://www.w3.org/2000/svg">
<path d="M71.0671 83.8154H62.9827V99.9498H71.0671V83.8154Z" fill="#00AA1B"/>
<path d="M139.785 0H40.215C18.1036 0 0 18.1036 0 40.215V139.785C0 161.896 18.1036 180 40.215 180H139.785C161.896 180 180 161.896 180 139.785V40.215C180 18.1036 161.896 0 139.785 0ZM119.505 130.215L69.7198 108.035H54.9328V75.7658H69.7198L119.505 49.5432V74.6257L115.67 78.4607L111.455 74.2457V62.6027L87.2361 74.6948L79.1516 78.737V101.056L87.2361 105.098L111.455 117.19V105.547L115.67 101.332L119.505 105.167V130.215ZM129.904 98.4299L124.203 104.131L115.635 95.5624L107.102 104.131L101.401 98.4299L109.969 89.8618L101.401 81.2937L107.102 75.5931L115.67 84.1612L124.238 75.5931L129.939 81.2937L121.37 89.8618L129.904 98.4299Z" fill="#00AA1B"/>
</svg>
