<svg width="727" height="347" viewBox="0 0 727 347" fill="none" xmlns="http://www.w3.org/2000/svg">
<g clip-path="url(#clip0)" filter="url(#filter0_d)">
<path d="M138.121 123.053L113.919 147.244L76.0598 185.087L60 169.032L122.026 107.032L138.121 123.053Z" fill="white"/>
<path d="M138.121 215.013L113.919 190.822L76.0598 152.979L60 169.032L122.026 231.034L138.121 215.013Z" fill="white"/>
<path d="M588.73 123.053L612.933 147.244L650.792 185.087L666.852 169.032L604.825 107.032L588.73 123.053Z" fill="white"/>
<path d="M588.73 215.013L612.933 190.822L650.792 152.979L666.852 169.032L604.825 231.034L588.73 215.013Z" fill="white"/>
<path d="M242.318 81.5897H179.275L145.257 116.142L129.212 100.104L173.211 56L248.37 56.015H447.619L554.163 56L598.162 100.104L582.117 116.142L548.099 81.5897H447.619H242.318Z" fill="#00AA1B"/>
<path d="M248.37 282.095L173.211 282.11L129.212 238.006L145.257 221.968L179.275 256.521H242.318H447.619H548.099L582.117 221.968L598.162 238.006L554.163 282.11L447.619 282.095H248.37Z" fill="#00AA1B"/>
</g>
<g clip-path="url(#clip1)">
<path d="M185.574 126.377L195.704 116.248H226.091H236.218L246.348 126.377L236.218 136.505H195.704L185.574 126.377Z" fill="#00AA1B"/>
<path d="M246.348 214.234L236.218 224.364H205.834H195.704L185.574 214.234L195.704 204.104H236.218L246.348 214.234Z" fill="#00AA1B"/>
<path d="M182.401 211.163L176.31 205.026L176.303 161.811L194.016 182.068V199.862L182.401 211.163Z" fill="#00AA1B"/>
<path d="M182.689 129.331L193.97 140.746L194.016 175.234L176.279 155.013L176.254 135.766L182.689 129.331Z" fill="#00AA1B"/>
<path d="M249.593 211.163L255.683 205.026L255.69 161.811L237.977 182.068V199.862L249.593 211.163Z" fill="#00AA1B"/>
<path d="M249.305 129.331L238.026 140.746L237.977 175.234L255.715 155.013L255.742 135.766L249.305 129.331Z" fill="#00AA1B"/>
<path d="M491.045 211.136L500.858 201.316V183.354L481.872 164.523L481.908 201.999L491.045 211.136Z" fill="#00AA1B"/>
<path d="M491.007 129.424L500.883 139.302L500.858 157.13L481.874 176.114V138.634L491.007 129.424Z" fill="#00AA1B"/>
<path d="M454.958 129.424L417.787 166.85H448.733L463.141 153.972V137.607L454.958 129.424Z" fill="#00AA1B"/>
<path d="M405.323 211.516L445.34 170.794H414.375L397.14 186.969V203.335L405.323 211.516Z" fill="#00AA1B"/>
<path d="M379.612 197.33L375.244 200.609L370.873 197.33V188.591L375.244 185.315L379.612 188.591V197.33Z" fill="#00AA1B"/>
<path d="M379.612 165.48L375.244 168.755L370.873 165.48V156.74L375.244 153.462L379.612 156.74V165.48Z" fill="#00AA1B"/>
<path d="M284.573 126.377L294.702 116.248H325.089H335.217L345.347 126.377L335.217 136.505H294.702L284.573 126.377Z" fill="#00AA1B"/>
<path d="M391.047 126.377L401.177 116.248H431.564H441.691L451.821 126.377L441.691 136.505H401.177L391.047 126.377Z" fill="#00AA1B"/>
<path d="M494.143 126.377L504.273 116.248H534.657H544.787L554.917 126.377L544.787 136.505H504.273L494.143 126.377Z" fill="#00AA1B"/>
<path d="M494.143 170.304L504.273 160.177H534.657H544.787L554.917 170.304L544.787 180.434H504.273L494.143 170.304Z" fill="#00AA1B"/>
<path d="M345.347 214.234L335.217 224.364H304.83H294.702L284.573 214.234L294.702 204.104H335.217L345.347 214.234Z" fill="#00AA1B"/>
<path d="M469.13 214.234L459.002 224.364H428.615H418.488L408.358 214.234L418.488 204.104H459.002L469.13 214.234Z" fill="#00AA1B"/>
<path d="M554.917 214.234L544.787 224.364H514.4H504.273L494.143 214.234L504.273 204.104H544.787L554.917 214.234Z" fill="#00AA1B"/>
<path d="M281.399 211.163L275.309 205.026L275.301 161.811L293.014 182.068V199.862L281.399 211.163Z" fill="#00AA1B"/>
<path d="M281.687 129.331L292.968 140.746L293.014 175.234L275.277 155.013L275.252 135.766L281.687 129.331Z" fill="#00AA1B"/>
<path d="M348.591 211.163L354.682 205.026L354.689 161.811L336.976 182.068V199.862L348.591 211.163Z" fill="#00AA1B"/>
<path d="M348.303 129.331L337.022 140.746L336.976 175.234L354.713 155.013L354.738 135.766L348.303 129.331Z" fill="#00AA1B"/>
</g>
<defs>
<filter id="filter0_d" x="0.19355" y="0.978066" width="726.464" height="345.723" filterUnits="userSpaceOnUse" color-interpolation-filters="sRGB">
<feFlood flood-opacity="0" result="BackgroundImageFix"/>
<feColorMatrix in="SourceAlpha" type="matrix" values="0 0 0 0 0 0 0 0 0 0 0 0 0 0 0 0 0 0 127 0"/>
<feOffset dy="4.78452"/>
<feGaussianBlur stdDeviation="29.9032"/>
<feColorMatrix type="matrix" values="0 0 0 0 1 0 0 0 0 1 0 0 0 0 1 0 0 0 0.06 0"/>
<feBlend mode="normal" in2="BackgroundImageFix" result="effect1_dropShadow"/>
<feBlend mode="normal" in="SourceGraphic" in2="effect1_dropShadow" result="shape"/>
</filter>
<clipPath id="clip0">
<rect width="606.852" height="226.111" fill="white" transform="translate(60 56)"/>
</clipPath>
<clipPath id="clip1">
<rect width="383.21" height="108.116" fill="white" transform="translate(171.708 116.248)"/>
</clipPath>
</defs>
</svg>
