<svg width="148" height="148" viewBox="0 0 148 148" fill="none" xmlns="http://www.w3.org/2000/svg">
<rect width="148" height="148" rx="36" fill="#00AA1B"/>
<path d="M107 70C105.931 70 104.881 70.1144 103.874 70.33C102.524 56.6912 90.9856 46 77 46C75.3444 46 74 47.3444 74 49V97C74 98.6556 75.3444 100 77 100H107C115.274 100 122 93.2744 122 85C122 76.7313 115.274 70 107 70Z" fill="#B7D5BA"/>
<path d="M65 52C63.3444 52 62 53.3444 62 55V97C62 98.6556 63.3444 100 65 100C66.6556 100 68 98.6556 68 97V55C68 53.3444 66.6556 52 65 52Z" fill="#B7D5BA"/>
<path d="M53 64C51.3444 64 50 65.3444 50 67V97C50 98.6556 51.3444 100 53 100C54.6556 100 56 98.6556 56 97V67C56 65.3444 54.6556 64 53 64Z" fill="#B7D5BA"/>
<path d="M41 64C39.3444 64 38 65.3444 38 67V97C38 98.6556 39.3444 100 41 100C42.6556 100 44 98.6556 44 97V67C44 65.3444 42.6556 64 41 64Z" fill="#B7D5BA"/>
<path d="M29 73C27.3444 73 26 74.3444 26 76V94C26 95.6556 27.3444 97 29 97C30.6556 97 32 95.6556 32 94V76C32 74.3444 30.6556 73 29 73Z" fill="#B7D5BA"/>
</svg>
