<svg width="148" height="148" viewBox="0 0 148 148" fill="none" xmlns="http://www.w3.org/2000/svg">
<rect width="148" height="148" rx="36" fill="#00AA1B"/>
<path d="M97.4779 105.995V106C96.4685 106 95.8414 105.686 94.9019 105.13C79.8863 96.0243 62.4158 95.6445 45.1575 99.2018C44.218 99.4481 42.9895 99.8326 42.2924 99.8326C39.9542 99.8326 38.4878 97.966 38.4878 96.0056C38.4878 93.5082 39.9542 92.3239 41.7655 91.9394C61.474 87.5612 81.6161 87.9482 98.7951 98.2826C100.261 99.2276 101.133 100.074 101.133 102.274C101.133 104.464 99.4245 105.995 97.4779 105.995Z" fill="#E1DFDF"/>
<path d="M103.959 90.1221H103.954C102.7 90.1221 101.861 89.5663 100.991 89.1067C85.9476 80.1511 63.5279 76.5398 43.5746 81.9873C42.4207 82.3015 41.7936 82.6181 40.7095 82.6181C38.1335 82.6181 36.0447 80.5123 36.0447 77.9257C36.0447 75.3392 37.2989 73.618 39.7747 72.9191C46.4631 71.0291 53.2983 69.6221 63.3087 69.6221C78.9258 69.6221 94.0137 73.5195 105.905 80.6389C107.854 81.7997 108.626 83.3052 108.626 85.4063C108.6 88.0116 106.579 90.1221 103.959 90.1221Z" fill="#E1DFDF"/>
<path d="M36.1869 52.677C44.6564 50.1795 54.1423 49 64.4651 49C82.0311 49 100.443 52.677 113.895 60.5702C115.774 61.6607 116.998 63.1615 116.998 66.0388C116.998 69.3312 114.347 71.6762 111.417 71.6762L111.412 71.6715C110.158 71.6715 109.388 71.3573 108.304 70.7265C91.179 60.4413 60.5369 57.9743 40.7142 63.5437C39.8447 63.7829 38.7606 64.1698 37.6067 64.1698C34.4268 64.1675 32 61.6724 32 58.4551C32 55.1674 34.0235 53.3078 36.1869 52.677Z" fill="#E1DFDF"/>
</svg>
