<svg width="83" height="58" viewBox="0 0 83 58" fill="none" xmlns="http://www.w3.org/2000/svg">
<path d="M79.2079 4.88034C77.7618 3.02312 75.3655 1.53736 72.7626 1.08337C65.1604 -0.361125 17.7298 -0.361125 10.1277 1.08337C8.06186 1.45482 6.20264 2.40405 4.63264 3.84855C-2.06054 10.0393 0.00525622 43.2215 1.61658 48.6281C2.27763 50.9393 3.18658 52.6314 4.26079 53.7457C5.66554 55.1902 7.60738 56.222 9.87976 56.676C16.1598 57.9554 48.3862 58.6983 72.5973 56.8823C74.8284 56.5109 76.8115 55.4379 78.3815 53.9521C84.5789 47.7201 84.1244 12.6394 79.2079 4.88034ZM33.1406 39.6722C33.1406 31.9544 33.1406 24.1954 33.1406 16.4364C41.4038 20.3159 47.8078 24.0716 55.3686 28.1162C49.1299 31.5417 41.4038 35.4212 33.1406 39.6722Z" fill="#00AA1B"/>
</svg>
