<svg width="149" height="148" viewBox="0 0 149 148" fill="none" xmlns="http://www.w3.org/2000/svg">
<rect x="1" width="148" height="148" rx="36" fill="#00AA1B"/>
<g clip-path="url(#clip0)">
<path d="M126 74.0789C126 74.0789 126 89.8404 124.004 97.4388C122.886 101.598 119.612 104.879 115.462 105.999C107.88 108 77.5459 108 77.5459 108C77.5459 108 47.2909 108 39.6271 105.921C35.4772 104.8 32.2027 101.519 31.085 97.3598C29.0918 89.8404 29.0918 74 29.0918 74C29.0918 74 29.0918 58.2416 31.088 50.6402C32.2057 46.4812 35.559 43.1207 39.6302 42.0005C47.2121 40 77.5459 40 77.5459 40C77.5459 40 107.88 40 115.465 42.0795C119.615 43.1996 122.889 46.4812 124.007 50.6402C126.082 58.2416 126 74.0789 126 74.0789Z" fill="#B7D5BA"/>
<path d="M67.886 88.5593L93.1126 74L67.889 59.4407V88.5593H67.886Z" fill="#00AA1B"/>
</g>
<defs>
<clipPath id="clip0">
<rect width="126" height="68" fill="white" transform="translate(0 40)"/>
</clipPath>
</defs>
</svg>
